<?xml version="1.0" encoding="UTF-8" standalone="no"?>
<!-- Generator: Adobe Illustrator 26.2.1, SVG Export Plug-In . SVG Version: 6.00 Build 0)  -->

<svg
   version="1.1"
   id="Layer_1"
   x="0px"
   y="0px"
   viewBox="0 0 192 208.89999"
   xml:space="preserve"
   sodipodi:docname="Draper Logo Without Text.svg"
   width="192"
   height="208.89999"
   inkscape:version="1.1.2 (b8e25be8, 2022-02-05)"
   xmlns:inkscape="http://www.inkscape.org/namespaces/inkscape"
   xmlns:sodipodi="http://sodipodi.sourceforge.net/DTD/sodipodi-0.dtd"
   xmlns:xlink="http://www.w3.org/1999/xlink"
   xmlns="http://www.w3.org/2000/svg"
   xmlns:svg="http://www.w3.org/2000/svg"><defs
   id="defs255" /><sodipodi:namedview
   id="namedview253"
   pagecolor="#ffffff"
   bordercolor="#666666"
   borderopacity="1.0"
   inkscape:pageshadow="2"
   inkscape:pageopacity="0.0"
   inkscape:pagecheckerboard="0"
   showgrid="false"
   inkscape:zoom="2.009847"
   inkscape:cx="237.58027"
   inkscape:cy="127.62165"
   inkscape:window-width="1728"
   inkscape:window-height="993"
   inkscape:window-x="0"
   inkscape:window-y="38"
   inkscape:window-maximized="1"
   inkscape:current-layer="Layer_1" />
<style
   type="text/css"
   id="style149">
	.st0{fill:url(#SVGID_1_);}
	.st1{clip-path:url(#SVGID_00000119838775460743180360000004188455512892256912_);fill:#F9D515;}
	.st2{opacity:0.3;}
	.st3{fill:#010101;}
	.st4{fill:#24A7DE;}
	.st5{fill:#1D4F8A;}
</style>
<g
   id="g250"
   transform="translate(0,-0.1)">
	<g
   id="g206">
		
			<radialGradient
   id="SVGID_1_"
   cx="96"
   cy="652.04999"
   r="100.314"
   gradientTransform="matrix(1,0,0,-1,0,756.6)"
   gradientUnits="userSpaceOnUse">
			<stop
   offset="1.212120e-02"
   style="stop-color:#29AAE1"
   id="stop151" />
			<stop
   offset="0.132"
   style="stop-color:#2AA4DB"
   id="stop153" />
			<stop
   offset="0.3117"
   style="stop-color:#2996CC"
   id="stop155" />
			<stop
   offset="0.5289"
   style="stop-color:#2781B7"
   id="stop157" />
			<stop
   offset="0.773"
   style="stop-color:#22689F"
   id="stop159" />
			<stop
   offset="1"
   style="stop-color:#1D4F8A"
   id="stop161" />
		</radialGradient>
		<path
   class="st0"
   d="m 191.9,39.6 c 0.3,17.1 -1.1,33.9 -4.6,50.6 -2.9,14 -7.4,27.7 -13.5,40.6 -5.6,11.9 -12.6,23.1 -20.6,33.6 -1.5,1.9 -3,3.8 -4.6,5.7 -1.5,1.8 -3,4.1 -4.8,5.5 -0.6,0.5 -1.1,1 -1.5,1.5 -1.3,1.4 -2.7,2.8 -4.2,4.2 -0.5,0.4 -1,0.9 -1.4,1.4 -10.1,9.1 -21.3,17.5 -34.7,23.9 -1.7,0.8 -4.4,2.3 -6,2.4 -1.4,0 -3.9,-1.4 -5.7,-2.2 C 63.8,194.4 43.5,173.9 28.6,150.1 20.9,137.8 14.7,124.5 10.2,110.6 5.1,95.1 2.1,79 0.7,62.7 0.3,57 0,51.2 0,45.5 c 0,-2.7 0.1,-5.3 0.2,-8 0,-1.7 -0.3,-4.5 1.1,-5.8 1,-1 4.3,-0.9 6.8,-1.1 31.6,-2.5 57.8,-11 78.5,-24.4 1.2,-0.8 3,-1.9 4.7,-3.2 1.3,-1 3.2,-2.9 4.9,-2.9 1.6,0 3.4,2 4.9,3.1 20.9,15.2 49.6,24.9 83.3,27.5 1.9,0.1 5.8,0.2 6.7,1.1 0.9,0.9 0.8,2.4 0.9,3.6 -0.2,1.3 -0.1,2.7 -0.1,4.2 z"
   id="path164"
   style="fill:url(#SVGID_1_)" />
		<g
   id="g176">
			<g
   id="g174">
				<defs
   id="defs167">
					<path
   id="SVGID_00000062175429892245393160000013844881236207735446_"
   d="m 192,39.6 c 0.4,61.9 -19.3,103.6 -48.2,136.1 -0.6,0.5 -1.1,1 -1.5,1.5 -1.3,1.4 -2.7,2.8 -4.2,4.2 -0.5,0.4 -1,0.9 -1.4,1.4 -10.1,9.1 -21.3,17.5 -34.7,23.9 -1.7,0.8 -4.4,2.3 -6,2.4 -1.4,0 -3.9,-1.4 -5.7,-2.2 C 63.8,194.5 43.5,174 28.6,150.2 12.2,123.8 2,92.2 0.1,52.6 0,51.9 0.3,50.8 0,50.4 0,47.3 0,44.3 0,41.2 0.3,40.7 0.1,39.7 0.1,39 0.2,37 -0.1,32.9 1.2,31.6 2.2,30.6 5.5,30.7 8,30.5 39.6,28 65.8,19.5 86.5,6.1 c 1.2,-0.8 3,-1.9 4.7,-3.2 1.3,-1 3.2,-2.9 4.9,-2.9 1.6,0 3.4,2 4.9,3.1 20.9,15.2 49.6,24.9 83.3,27.5 1.9,0.1 5.8,0.2 6.7,1.1 1.3,1.3 0.7,3.6 1,6.4 0,0.4 -0.3,1.2 0,1.5 z" />
				</defs>
				<clipPath
   id="SVGID_00000085235051757744162300000016142334316496689565_">
					<use
   xlink:href="#SVGID_00000062175429892245393160000013844881236207735446_"
   style="overflow:visible"
   id="use169"
   x="0"
   y="0"
   width="100%"
   height="100%" />
				</clipPath>
				<path
   style="fill:#f9d515"
   d="m 13.1,102.8 c -2.8,7 -6.4,17.9 -8.9,25 -0.4,1.2 -0.8,0.8 -0.5,-0.4 6.1,-23.3 12.2,-46.6 26.5,-66.5 3.3,-4.3 6.4,-8.7 9.5,-13.2 -0.5,-0.9 -1.5,-0.1 -2.2,-0.1 -9,3.5 -18,6.9 -26.3,11.9 7.8,-14 19.2,-26.8 31.8,-37.9 -4.3,0.2 -7.8,3.1 -11.5,4.9 5.8,-7.2 12,-14.4 19.6,-19.9 0.4,0.1 0.7,0.3 1.3,0.3 -3.3,3.7 -6.6,7.6 -8.8,11.9 4.1,-1.1 8,-3.2 12.2,-4.5 -9.3,7.4 -18.3,17.3 -24.4,27.2 -0.5,1.3 -1.3,2.5 -1.8,3.7 -0.4,0.8 0.3,1.1 1.3,0.7 C 41,41.2 51.4,37.3 62.5,35.3 38.9,52.1 23.1,77.6 13.1,102.8 Z"
   clip-path="url(#SVGID_00000085235051757744162300000016142334316496689565_)"
   id="path172" />
			</g>
		</g>
		<g
   id="g192">
			<g
   class="st2"
   id="g180">
				<path
   class="st3"
   d="m 57,152.8 c -0.9,0 -1.4,0.1 -1.7,0.1 -0.8,0 -1.5,-0.1 -1.9,-0.3 -0.4,-0.2 -0.7,-0.6 -0.7,-1 0,-0.9 1.2,-1.5 3.5,-1.8 0.2,0 0.3,-0.1 0.4,-0.1 1.2,-0.1 2.2,-0.2 3,-0.5 0.9,-0.2 1.6,-0.5 2.3,-0.8 1.8,-0.9 3,-2.1 3.7,-3.7 0.7,-1.6 1,-4.3 1,-8 v -65 c 0,-3.6 -0.3,-6.3 -1,-7.9 C 64.9,62.2 63.7,61 62,60.2 60.9,59.6 59,59.3 56.4,59.1 h -0.1 c -0.1,0 -0.2,-0.1 -0.4,-0.1 -2.1,-0.3 -3.2,-0.8 -3.2,-1.4 0,-0.5 0.3,-0.8 0.8,-1.1 0.5,-0.3 1.1,-0.4 2,-0.4 0.3,0 1.1,0 2.4,0.1 5.7,0.4 11.2,0.6 16.4,0.6 2.1,0 5.4,-0.1 9.8,-0.3 4.4,-0.2 7.7,-0.3 9.9,-0.3 17.2,0 30.6,4.4 40.3,13.1 9.7,8.7 14.5,20.9 14.5,36.4 0,15.8 -4.3,27.6 -13,35.5 -8.7,7.9 -21.6,11.8 -38.9,11.8 -3.7,0 -8.3,-0.1 -13.8,-0.3 M 82,129.8 c 0,7.4 1.3,12.5 3.8,15.4 2.6,2.8 7,4.3 13.4,4.3 11.2,0 19.4,-3.3 24.5,-9.8 5.1,-6.5 7.7,-17 7.7,-31.5 0,-17 -3.1,-29.3 -9.4,-37.1 -6.3,-7.7 -16.3,-11.6 -30,-11.6 -4.4,0 -7.2,0.5 -8.4,1.6 -1.1,1 -1.7,3.2 -1.7,6.4 z"
   id="path178" />
			</g>
			<g
   id="g190">
				<g
   id="g188">
					<g
   id="g186">
						<g
   id="g184">
							<path
   class="st4"
   d="m 57.7,152.8 c -0.9,0 -1.4,0.1 -1.7,0.1 -0.8,0 -1.5,-0.1 -1.9,-0.3 -0.4,-0.2 -0.7,-0.6 -0.7,-1 0,-0.9 1.2,-1.5 3.5,-1.8 0.2,0 0.3,-0.1 0.4,-0.1 1.2,-0.1 2.2,-0.2 3,-0.5 0.9,-0.2 1.6,-0.5 2.3,-0.8 1.8,-0.9 3,-2.1 3.7,-3.7 0.7,-1.6 1,-4.3 1,-8 v -65 c 0,-3.6 -0.3,-6.3 -1,-7.9 -0.7,-1.6 -1.9,-2.8 -3.6,-3.6 -1.1,-0.6 -3,-0.9 -5.6,-1.1 H 57 c -0.1,0 -0.2,-0.1 -0.4,-0.1 -2.1,-0.3 -3.2,-0.8 -3.2,-1.4 0,-0.5 0.3,-0.8 0.8,-1.1 0.5,-0.3 1.1,-0.4 2,-0.4 0.3,0 1.1,0 2.4,0.1 5.7,0.4 11.2,0.6 16.4,0.6 2.1,0 5.4,-0.1 9.8,-0.3 4.4,-0.2 7.7,-0.3 9.9,-0.3 17.2,0 30.6,4.4 40.3,13.1 9.7,8.7 14.5,20.9 14.5,36.4 0,15.8 -4.3,27.6 -13,35.5 -8.7,7.9 -21.6,11.8 -38.9,11.8 -3.7,0 -8.3,-0.1 -13.8,-0.3 m -1.2,-22.9 c 0,7.4 1.3,12.5 3.8,15.4 2.6,2.8 7,4.3 13.4,4.3 11.2,0 19.4,-3.3 24.5,-9.8 5.1,-6.5 7.7,-17 7.7,-31.5 0,-17 -3.1,-29.3 -9.4,-37.1 -6.3,-7.7 -16.3,-11.6 -30,-11.6 -4.4,0 -7.2,0.5 -8.4,1.6 -1.1,1 -1.7,3.2 -1.7,6.4 z"
   id="path182" />
						</g>
					</g>
				</g>
			</g>
		</g>
		<g
   id="g204">
			<g
   class="st2"
   id="g196">
				<path
   class="st3"
   d="m 80.6,129.8 c 0,7.4 1.3,12.5 3.8,15.4 2.6,2.8 7,4.3 13.4,4.3 11.2,0 19.4,-3.3 24.5,-9.8 5.1,-6.5 7.7,-17 7.7,-31.5 0,-17 -3.1,-29.3 -9.4,-37.1 -6.3,-7.7 -16.3,-11.6 -30,-11.6 -4.4,0 -7.2,0.5 -8.4,1.6 -1.1,1 -1.7,3.2 -1.7,6.4 z m -25,23 c -0.9,0 -1.4,0.1 -1.7,0.1 -0.8,0 -1.5,-0.1 -1.9,-0.3 -0.4,-0.2 -0.7,-0.6 -0.7,-1 0,-0.9 1.2,-1.5 3.5,-1.8 0.2,0 0.3,-0.1 0.4,-0.1 1.2,-0.1 2.2,-0.2 3,-0.5 0.9,-0.2 1.6,-0.5 2.3,-0.8 1.8,-0.9 3,-2.1 3.7,-3.7 0.7,-1.6 1,-4.3 1,-8 v -65 c 0,-3.6 -0.3,-6.3 -1,-7.9 -0.7,-1.6 -1.9,-2.8 -3.6,-3.6 -1.1,-0.6 -3,-0.9 -5.6,-1.1 v 0 c -0.1,0 -0.2,-0.1 -0.4,-0.1 -2.1,-0.3 -3.2,-0.8 -3.2,-1.4 0,-0.5 0.3,-0.8 0.8,-1.1 0.5,-0.3 1.1,-0.4 2,-0.4 0.3,0 1.1,0 2.4,0.1 5.7,0.4 11.2,0.6 16.4,0.6 2.1,0 5.4,-0.1 9.8,-0.3 4.4,-0.2 7.7,-0.3 9.9,-0.3 17.2,0 30.6,4.4 40.3,13.1 9.7,8.7 14.5,20.9 14.5,36.4 0,15.8 -4.3,27.6 -13,35.5 -8.7,7.9 -21.6,11.8 -38.9,11.8 -3.7,0 -8.3,-0.1 -13.8,-0.3"
   id="path194" />
			</g>
			<g
   id="g202">
				<g
   id="g200">
					<path
   class="st5"
   d="m 81.2,129.8 c 0,7.4 1.3,12.5 3.8,15.4 2.6,2.8 7,4.3 13.4,4.3 11.2,0 19.4,-3.3 24.5,-9.8 5.1,-6.5 7.7,-17 7.7,-31.5 0,-17 -3.1,-29.3 -9.4,-37.1 -6.3,-7.7 -16.3,-11.6 -30,-11.6 -4.4,0 -7.2,0.5 -8.4,1.6 -1.1,1 -1.7,3.2 -1.7,6.4 z m -25,23 c -0.9,0 -1.4,0.1 -1.7,0.1 -0.8,0 -1.5,-0.1 -1.9,-0.3 -0.4,-0.2 -0.7,-0.6 -0.7,-1 0,-0.9 1.2,-1.5 3.5,-1.8 0.2,0 0.3,-0.1 0.4,-0.1 1.2,-0.1 2.2,-0.2 3,-0.5 0.9,-0.2 1.6,-0.5 2.3,-0.8 1.8,-0.9 3,-2.1 3.7,-3.7 0.7,-1.6 1,-4.3 1,-8 v -65 c 0,-3.6 -0.3,-6.3 -1,-7.9 -0.7,-1.6 -1.9,-2.8 -3.6,-3.6 -1.1,-0.6 -3,-0.9 -5.6,-1.1 H 55.5 C 55.4,59.1 55.3,59 55.1,59 53,58.7 52,58.2 52,57.6 c 0,-0.5 0.3,-0.8 0.8,-1.1 0.5,-0.3 1.1,-0.4 2,-0.4 0.3,0 1.1,0 2.4,0.1 5.7,0.4 11.2,0.6 16.4,0.6 2.1,0 5.4,-0.1 9.8,-0.3 4.4,-0.2 7.7,-0.3 9.9,-0.3 17.2,0 30.6,4.4 40.3,13.1 9.7,8.7 14.5,20.9 14.5,36.4 0,15.8 -4.3,27.6 -13,35.5 -8.7,7.9 -21.6,11.8 -38.9,11.8 -3.7,0 -8.3,-0.1 -13.8,-0.3"
   id="path198" />
				</g>
			</g>
		</g>
	</g>
	
</g>
</svg>
